<?xml version="1.0" encoding="UTF-8"?>
<svg xmlns="http://www.w3.org/2000/svg" onmouseup="{ if(window.parent.document.onmouseup) window.parent.document.onmouseup(arguments[0]);}" width="36" viewBox="0 0 36 36" id="S_StepBackwardCircle_18_N_2x" height="36" data-name="S_StepBackwardCircle_18_N@2x"><defs><style>
      .fill {
        fill: #6e6e6e;
      }

      
    </style></defs><path data-cppathid="10000" d="M2,18A16,16,0,1,0,18,2,16,16,0,0,0,2,18Zm20-7a1,1,0,0,1,1-1h2a1,1,0,0,1,1,1V25a1,1,0,0,1-1,1H23a1,1,0,0,1-1-1ZM7.6,17.219,16.375,10.2A1,1,0,0,1,18,10.983V25.017a1,1,0,0,1-1.625.781L7.6,18.781A1,1,0,0,1,7.6,17.219Z" class="fill"/></svg>